<mxfile host="app.diagrams.net" agent="Mozilla/5.0 (Windows NT 10.0; Win64; x64) AppleWebKit/537.36 (KHTML, like Gecko) Chrome/134.0.0.0 Safari/537.36 Edg/134.0.0.0" version="26.1.1" pages="2">
  <diagram name="페이지-1" id="IoLyVRmvSheIOgK2fmha">
    <mxGraphModel grid="1" page="1" gridSize="10" guides="1" tooltips="1" connect="1" arrows="1" fold="1" pageScale="1" pageWidth="827" pageHeight="1169" math="0" shadow="0">
      <root>
        <mxCell id="0" />
        <mxCell id="1" parent="0" />
        <mxCell id="iRMEyDaeMtuCpQb7a-bZ-104" value="" style="rounded=0;whiteSpace=wrap;html=1;" vertex="1" parent="1">
          <mxGeometry x="20" y="20" width="770" height="320" as="geometry" />
        </mxCell>
        <mxCell id="iRMEyDaeMtuCpQb7a-bZ-1" value="UConfigManager" style="html=1;whiteSpace=wrap;" vertex="1" parent="1">
          <mxGeometry x="40" y="120" width="110" height="50" as="geometry" />
        </mxCell>
        <mxCell id="iRMEyDaeMtuCpQb7a-bZ-2" value="«interface»&lt;br&gt;&lt;b&gt;TSingleton&lt;/b&gt;" style="html=1;whiteSpace=wrap;" vertex="1" parent="1">
          <mxGeometry x="40" y="40" width="110" height="50" as="geometry" />
        </mxCell>
        <mxCell id="iRMEyDaeMtuCpQb7a-bZ-3" value="UEngine" style="html=1;whiteSpace=wrap;" vertex="1" parent="1">
          <mxGeometry x="160" y="120" width="110" height="50" as="geometry" />
        </mxCell>
        <mxCell id="iRMEyDaeMtuCpQb7a-bZ-5" value="APlayerController" style="html=1;whiteSpace=wrap;" vertex="1" parent="1">
          <mxGeometry x="160" y="200" width="110" height="50" as="geometry" />
        </mxCell>
        <mxCell id="iRMEyDaeMtuCpQb7a-bZ-6" value="FDevice" style="html=1;whiteSpace=wrap;" vertex="1" parent="1">
          <mxGeometry x="280" y="120" width="110" height="50" as="geometry" />
        </mxCell>
        <mxCell id="iRMEyDaeMtuCpQb7a-bZ-7" value="FFontAtlas" style="html=1;whiteSpace=wrap;" vertex="1" parent="1">
          <mxGeometry x="640" y="200" width="110" height="50" as="geometry" />
        </mxCell>
        <mxCell id="iRMEyDaeMtuCpQb7a-bZ-8" value="FNamePool" style="html=1;whiteSpace=wrap;" vertex="1" parent="1">
          <mxGeometry x="520" y="120" width="110" height="50" as="geometry" />
        </mxCell>
        <mxCell id="iRMEyDaeMtuCpQb7a-bZ-10" value="UDebugDrawManager" style="html=1;whiteSpace=wrap;" vertex="1" parent="1">
          <mxGeometry x="640" y="120" width="130" height="50" as="geometry" />
        </mxCell>
        <mxCell id="iRMEyDaeMtuCpQb7a-bZ-11" value="UAssetManager" style="html=1;whiteSpace=wrap;" vertex="1" parent="1">
          <mxGeometry x="400" y="120" width="110" height="50" as="geometry" />
        </mxCell>
        <mxCell id="iRMEyDaeMtuCpQb7a-bZ-12" value="FEditorManager" style="html=1;whiteSpace=wrap;" vertex="1" parent="1">
          <mxGeometry x="280" y="200" width="110" height="50" as="geometry" />
        </mxCell>
        <mxCell id="iRMEyDaeMtuCpQb7a-bZ-13" value="FLineBatchMa&lt;span style=&quot;background-color: transparent; color: light-dark(rgb(0, 0, 0), rgb(255, 255, 255));&quot;&gt;nager&lt;/span&gt;" style="html=1;whiteSpace=wrap;" vertex="1" parent="1">
          <mxGeometry x="400" y="200" width="110" height="50" as="geometry" />
        </mxCell>
        <mxCell id="iRMEyDaeMtuCpQb7a-bZ-14" value="FUUIDBillBoard" style="html=1;whiteSpace=wrap;" vertex="1" parent="1">
          <mxGeometry x="520" y="200" width="110" height="50" as="geometry" />
        </mxCell>
        <mxCell id="iRMEyDaeMtuCpQb7a-bZ-17" value="UObject" style="html=1;whiteSpace=wrap;" vertex="1" parent="1">
          <mxGeometry x="40" y="370" width="110" height="50" as="geometry" />
        </mxCell>
        <mxCell id="iRMEyDaeMtuCpQb7a-bZ-23" style="edgeStyle=orthogonalEdgeStyle;rounded=0;orthogonalLoop=1;jettySize=auto;html=1;entryX=0.5;entryY=1;entryDx=0;entryDy=0;endArrow=block;endFill=0;" edge="1" parent="1" source="iRMEyDaeMtuCpQb7a-bZ-18" target="iRMEyDaeMtuCpQb7a-bZ-17">
          <mxGeometry relative="1" as="geometry" />
        </mxCell>
        <mxCell id="iRMEyDaeMtuCpQb7a-bZ-18" value="AActor" style="html=1;whiteSpace=wrap;" vertex="1" parent="1">
          <mxGeometry x="40" y="450" width="110" height="50" as="geometry" />
        </mxCell>
        <mxCell id="iRMEyDaeMtuCpQb7a-bZ-19" value="UClass" style="html=1;whiteSpace=wrap;" vertex="1" parent="1">
          <mxGeometry x="160" y="450" width="110" height="50" as="geometry" />
        </mxCell>
        <mxCell id="iRMEyDaeMtuCpQb7a-bZ-20" value="UActorComponent" style="html=1;whiteSpace=wrap;" vertex="1" parent="1">
          <mxGeometry x="280" y="450" width="110" height="50" as="geometry" />
        </mxCell>
        <mxCell id="iRMEyDaeMtuCpQb7a-bZ-21" value="UAsset" style="html=1;whiteSpace=wrap;" vertex="1" parent="1">
          <mxGeometry x="400" y="450" width="110" height="50" as="geometry" />
        </mxCell>
        <mxCell id="iRMEyDaeMtuCpQb7a-bZ-22" value="UWorld" style="html=1;whiteSpace=wrap;" vertex="1" parent="1">
          <mxGeometry x="520" y="450" width="110" height="50" as="geometry" />
        </mxCell>
        <mxCell id="iRMEyDaeMtuCpQb7a-bZ-29" value="FResource&amp;lt;T&amp;gt;" style="swimlane;fontStyle=0;childLayout=stackLayout;horizontal=1;startSize=26;fillColor=none;horizontalStack=0;resizeParent=1;resizeParentMax=0;resizeLast=0;collapsible=1;marginBottom=0;whiteSpace=wrap;html=1;" vertex="1" parent="1">
          <mxGeometry x="40" y="600" width="140" height="78" as="geometry" />
        </mxCell>
        <mxCell id="iRMEyDaeMtuCpQb7a-bZ-30" value="&lt;u&gt;+ T Find(FString)&lt;/u&gt;" style="text;strokeColor=none;fillColor=none;align=left;verticalAlign=top;spacingLeft=4;spacingRight=4;overflow=hidden;rotatable=0;points=[[0,0.5],[1,0.5]];portConstraint=eastwest;whiteSpace=wrap;html=1;" vertex="1" parent="iRMEyDaeMtuCpQb7a-bZ-29">
          <mxGeometry y="26" width="140" height="26" as="geometry" />
        </mxCell>
        <mxCell id="iRMEyDaeMtuCpQb7a-bZ-31" value="&lt;u&gt;+ void Release(FString)&lt;/u&gt;" style="text;strokeColor=none;fillColor=none;align=left;verticalAlign=top;spacingLeft=4;spacingRight=4;overflow=hidden;rotatable=0;points=[[0,0.5],[1,0.5]];portConstraint=eastwest;whiteSpace=wrap;html=1;" vertex="1" parent="iRMEyDaeMtuCpQb7a-bZ-29">
          <mxGeometry y="52" width="140" height="26" as="geometry" />
        </mxCell>
        <mxCell id="iRMEyDaeMtuCpQb7a-bZ-34" value="FBlendState" style="swimlane;fontStyle=0;childLayout=stackLayout;horizontal=1;startSize=26;fillColor=none;horizontalStack=0;resizeParent=1;resizeParentMax=0;resizeLast=0;collapsible=1;marginBottom=0;whiteSpace=wrap;html=1;" vertex="1" parent="1">
          <mxGeometry x="40" y="721" width="220" height="104" as="geometry" />
        </mxCell>
        <mxCell id="iRMEyDaeMtuCpQb7a-bZ-35" value="&lt;u&gt;+ FBlendState* Create(FString, DESC)&lt;/u&gt;" style="text;strokeColor=none;fillColor=none;align=left;verticalAlign=top;spacingLeft=4;spacingRight=4;overflow=hidden;rotatable=0;points=[[0,0.5],[1,0.5]];portConstraint=eastwest;whiteSpace=wrap;html=1;" vertex="1" parent="iRMEyDaeMtuCpQb7a-bZ-34">
          <mxGeometry y="26" width="220" height="26" as="geometry" />
        </mxCell>
        <mxCell id="iRMEyDaeMtuCpQb7a-bZ-36" value="+ void ResCreate(DESC)" style="text;strokeColor=none;fillColor=none;align=left;verticalAlign=top;spacingLeft=4;spacingRight=4;overflow=hidden;rotatable=0;points=[[0,0.5],[1,0.5]];portConstraint=eastwest;whiteSpace=wrap;html=1;" vertex="1" parent="iRMEyDaeMtuCpQb7a-bZ-34">
          <mxGeometry y="52" width="220" height="26" as="geometry" />
        </mxCell>
        <mxCell id="iRMEyDaeMtuCpQb7a-bZ-37" value="+ void Setting()" style="text;strokeColor=none;fillColor=none;align=left;verticalAlign=top;spacingLeft=4;spacingRight=4;overflow=hidden;rotatable=0;points=[[0,0.5],[1,0.5]];portConstraint=eastwest;whiteSpace=wrap;html=1;" vertex="1" parent="iRMEyDaeMtuCpQb7a-bZ-34">
          <mxGeometry y="78" width="220" height="26" as="geometry" />
        </mxCell>
        <mxCell id="iRMEyDaeMtuCpQb7a-bZ-39" value="FConstantBuffer" style="swimlane;fontStyle=0;childLayout=stackLayout;horizontal=1;startSize=26;fillColor=none;horizontalStack=0;resizeParent=1;resizeParentMax=0;resizeLast=0;collapsible=1;marginBottom=0;whiteSpace=wrap;html=1;" vertex="1" parent="1">
          <mxGeometry x="480" y="721" width="240" height="104" as="geometry" />
        </mxCell>
        <mxCell id="iRMEyDaeMtuCpQb7a-bZ-40" value="&lt;u&gt;+ FConstantBuffer* Create(FString, DESC)&lt;/u&gt;" style="text;strokeColor=none;fillColor=none;align=left;verticalAlign=top;spacingLeft=4;spacingRight=4;overflow=hidden;rotatable=0;points=[[0,0.5],[1,0.5]];portConstraint=eastwest;whiteSpace=wrap;html=1;" vertex="1" parent="iRMEyDaeMtuCpQb7a-bZ-39">
          <mxGeometry y="26" width="240" height="26" as="geometry" />
        </mxCell>
        <mxCell id="iRMEyDaeMtuCpQb7a-bZ-41" value="+ void ResCreate(DESC)" style="text;strokeColor=none;fillColor=none;align=left;verticalAlign=top;spacingLeft=4;spacingRight=4;overflow=hidden;rotatable=0;points=[[0,0.5],[1,0.5]];portConstraint=eastwest;whiteSpace=wrap;html=1;" vertex="1" parent="iRMEyDaeMtuCpQb7a-bZ-39">
          <mxGeometry y="52" width="240" height="26" as="geometry" />
        </mxCell>
        <mxCell id="iRMEyDaeMtuCpQb7a-bZ-42" value="+ void Setting()" style="text;strokeColor=none;fillColor=none;align=left;verticalAlign=top;spacingLeft=4;spacingRight=4;overflow=hidden;rotatable=0;points=[[0,0.5],[1,0.5]];portConstraint=eastwest;whiteSpace=wrap;html=1;" vertex="1" parent="iRMEyDaeMtuCpQb7a-bZ-39">
          <mxGeometry y="78" width="240" height="26" as="geometry" />
        </mxCell>
        <mxCell id="iRMEyDaeMtuCpQb7a-bZ-43" value="FDirectBuffer" style="swimlane;fontStyle=0;childLayout=stackLayout;horizontal=1;startSize=26;fillColor=none;horizontalStack=0;resizeParent=1;resizeParentMax=0;resizeLast=0;collapsible=1;marginBottom=0;whiteSpace=wrap;html=1;" vertex="1" parent="1">
          <mxGeometry x="580" y="600" width="140" height="78" as="geometry" />
        </mxCell>
        <mxCell id="iRMEyDaeMtuCpQb7a-bZ-44" value="+ ID3D11Buffer* Buffer" style="text;strokeColor=none;fillColor=none;align=left;verticalAlign=top;spacingLeft=4;spacingRight=4;overflow=hidden;rotatable=0;points=[[0,0.5],[1,0.5]];portConstraint=eastwest;whiteSpace=wrap;html=1;" vertex="1" parent="iRMEyDaeMtuCpQb7a-bZ-43">
          <mxGeometry y="26" width="140" height="26" as="geometry" />
        </mxCell>
        <mxCell id="iRMEyDaeMtuCpQb7a-bZ-45" value="+ void BufferRelease()" style="text;strokeColor=none;fillColor=none;align=left;verticalAlign=top;spacingLeft=4;spacingRight=4;overflow=hidden;rotatable=0;points=[[0,0.5],[1,0.5]];portConstraint=eastwest;whiteSpace=wrap;html=1;" vertex="1" parent="iRMEyDaeMtuCpQb7a-bZ-43">
          <mxGeometry y="52" width="140" height="26" as="geometry" />
        </mxCell>
        <mxCell id="iRMEyDaeMtuCpQb7a-bZ-47" value="FIndexBuffer" style="swimlane;fontStyle=0;childLayout=stackLayout;horizontal=1;startSize=26;fillColor=none;horizontalStack=0;resizeParent=1;resizeParentMax=0;resizeLast=0;collapsible=1;marginBottom=0;whiteSpace=wrap;html=1;" vertex="1" parent="1">
          <mxGeometry x="480" y="840" width="240" height="104" as="geometry" />
        </mxCell>
        <mxCell id="iRMEyDaeMtuCpQb7a-bZ-48" value="&lt;u&gt;+ FIndexBuffer* Create(FString, DESC)&lt;/u&gt;" style="text;strokeColor=none;fillColor=none;align=left;verticalAlign=top;spacingLeft=4;spacingRight=4;overflow=hidden;rotatable=0;points=[[0,0.5],[1,0.5]];portConstraint=eastwest;whiteSpace=wrap;html=1;" vertex="1" parent="iRMEyDaeMtuCpQb7a-bZ-47">
          <mxGeometry y="26" width="240" height="26" as="geometry" />
        </mxCell>
        <mxCell id="iRMEyDaeMtuCpQb7a-bZ-49" value="+ void ResCreate(DESC)" style="text;strokeColor=none;fillColor=none;align=left;verticalAlign=top;spacingLeft=4;spacingRight=4;overflow=hidden;rotatable=0;points=[[0,0.5],[1,0.5]];portConstraint=eastwest;whiteSpace=wrap;html=1;" vertex="1" parent="iRMEyDaeMtuCpQb7a-bZ-47">
          <mxGeometry y="52" width="240" height="26" as="geometry" />
        </mxCell>
        <mxCell id="iRMEyDaeMtuCpQb7a-bZ-50" value="+ void Setting()" style="text;strokeColor=none;fillColor=none;align=left;verticalAlign=top;spacingLeft=4;spacingRight=4;overflow=hidden;rotatable=0;points=[[0,0.5],[1,0.5]];portConstraint=eastwest;whiteSpace=wrap;html=1;" vertex="1" parent="iRMEyDaeMtuCpQb7a-bZ-47">
          <mxGeometry y="78" width="240" height="26" as="geometry" />
        </mxCell>
        <mxCell id="iRMEyDaeMtuCpQb7a-bZ-51" value="Create(FString)을 FResource로 묶고 Setting에 Desc를 넣는 방안?" style="text;html=1;align=center;verticalAlign=middle;whiteSpace=wrap;rounded=0;" vertex="1" parent="1">
          <mxGeometry x="242.5" y="660" width="210" height="30" as="geometry" />
        </mxCell>
        <mxCell id="iRMEyDaeMtuCpQb7a-bZ-52" value="FString-&amp;gt;FName" style="text;html=1;align=center;verticalAlign=middle;whiteSpace=wrap;rounded=0;" vertex="1" parent="1">
          <mxGeometry x="265" y="624" width="135" height="30" as="geometry" />
        </mxCell>
        <mxCell id="iRMEyDaeMtuCpQb7a-bZ-53" value="AssetManager에 합치기?" style="text;html=1;align=center;verticalAlign=middle;whiteSpace=wrap;rounded=0;" vertex="1" parent="1">
          <mxGeometry x="10" y="160" width="100" height="30" as="geometry" />
        </mxCell>
        <mxCell id="iRMEyDaeMtuCpQb7a-bZ-54" value="UConfigManager" style="html=1;whiteSpace=wrap;" vertex="1" parent="1">
          <mxGeometry x="1630" y="120" width="110" height="50" as="geometry" />
        </mxCell>
        <mxCell id="iRMEyDaeMtuCpQb7a-bZ-55" value="«interface»&lt;br&gt;&lt;b&gt;TSingleton&lt;/b&gt;" style="html=1;whiteSpace=wrap;" vertex="1" parent="1">
          <mxGeometry x="980" y="40" width="110" height="50" as="geometry" />
        </mxCell>
        <mxCell id="iRMEyDaeMtuCpQb7a-bZ-94" style="edgeStyle=orthogonalEdgeStyle;rounded=0;orthogonalLoop=1;jettySize=auto;html=1;entryX=0;entryY=0.5;entryDx=0;entryDy=0;" edge="1" parent="1" source="iRMEyDaeMtuCpQb7a-bZ-56" target="iRMEyDaeMtuCpQb7a-bZ-57">
          <mxGeometry relative="1" as="geometry" />
        </mxCell>
        <mxCell id="iRMEyDaeMtuCpQb7a-bZ-95" style="edgeStyle=orthogonalEdgeStyle;rounded=0;orthogonalLoop=1;jettySize=auto;html=1;entryX=0;entryY=0.5;entryDx=0;entryDy=0;" edge="1" parent="1" source="iRMEyDaeMtuCpQb7a-bZ-56" target="iRMEyDaeMtuCpQb7a-bZ-63">
          <mxGeometry relative="1" as="geometry" />
        </mxCell>
        <mxCell id="iRMEyDaeMtuCpQb7a-bZ-96" style="edgeStyle=orthogonalEdgeStyle;rounded=0;orthogonalLoop=1;jettySize=auto;html=1;entryX=0;entryY=0.5;entryDx=0;entryDy=0;" edge="1" parent="1" source="iRMEyDaeMtuCpQb7a-bZ-56" target="iRMEyDaeMtuCpQb7a-bZ-87">
          <mxGeometry relative="1" as="geometry" />
        </mxCell>
        <mxCell id="iRMEyDaeMtuCpQb7a-bZ-98" style="edgeStyle=orthogonalEdgeStyle;rounded=0;orthogonalLoop=1;jettySize=auto;html=1;entryX=0.5;entryY=1;entryDx=0;entryDy=0;endArrow=block;endFill=0;" edge="1" parent="1" source="iRMEyDaeMtuCpQb7a-bZ-56" target="iRMEyDaeMtuCpQb7a-bZ-55">
          <mxGeometry relative="1" as="geometry" />
        </mxCell>
        <mxCell id="iRMEyDaeMtuCpQb7a-bZ-102" style="edgeStyle=orthogonalEdgeStyle;rounded=0;orthogonalLoop=1;jettySize=auto;html=1;entryX=0;entryY=0.5;entryDx=0;entryDy=0;" edge="1" parent="1" source="iRMEyDaeMtuCpQb7a-bZ-56" target="iRMEyDaeMtuCpQb7a-bZ-100">
          <mxGeometry relative="1" as="geometry" />
        </mxCell>
        <mxCell id="iRMEyDaeMtuCpQb7a-bZ-56" value="UEngine" style="html=1;whiteSpace=wrap;" vertex="1" parent="1">
          <mxGeometry x="980" y="120" width="110" height="50" as="geometry" />
        </mxCell>
        <mxCell id="iRMEyDaeMtuCpQb7a-bZ-57" value="APlayerInput&lt;div&gt;-&amp;gt;UInputManager&lt;/div&gt;" style="html=1;whiteSpace=wrap;" vertex="1" parent="1">
          <mxGeometry x="1130" y="180" width="110" height="50" as="geometry" />
        </mxCell>
        <mxCell id="iRMEyDaeMtuCpQb7a-bZ-58" value="FDevice" style="html=1;whiteSpace=wrap;" vertex="1" parent="1">
          <mxGeometry x="1130" y="120" width="110" height="50" as="geometry" />
        </mxCell>
        <mxCell id="iRMEyDaeMtuCpQb7a-bZ-59" value="FFontAtlas" style="html=1;whiteSpace=wrap;" vertex="1" parent="1">
          <mxGeometry x="1340" y="680" width="110" height="50" as="geometry" />
        </mxCell>
        <mxCell id="iRMEyDaeMtuCpQb7a-bZ-60" value="FNamePool" style="html=1;whiteSpace=wrap;" vertex="1" parent="1">
          <mxGeometry x="1370" y="120" width="110" height="50" as="geometry" />
        </mxCell>
        <mxCell id="iRMEyDaeMtuCpQb7a-bZ-61" value="UDebugDrawManager" style="html=1;whiteSpace=wrap;" vertex="1" parent="1">
          <mxGeometry x="1490" y="120" width="130" height="50" as="geometry" />
        </mxCell>
        <mxCell id="iRMEyDaeMtuCpQb7a-bZ-62" value="UAssetManager" style="html=1;whiteSpace=wrap;" vertex="1" parent="1">
          <mxGeometry x="1250" y="120" width="110" height="50" as="geometry" />
        </mxCell>
        <mxCell id="iRMEyDaeMtuCpQb7a-bZ-63" value="FEditorManager" style="html=1;whiteSpace=wrap;" vertex="1" parent="1">
          <mxGeometry x="1130" y="240" width="110" height="50" as="geometry" />
        </mxCell>
        <mxCell id="iRMEyDaeMtuCpQb7a-bZ-64" value="FLineBatchMa&lt;span style=&quot;background-color: transparent; color: light-dark(rgb(0, 0, 0), rgb(255, 255, 255));&quot;&gt;nager&lt;/span&gt;" style="html=1;whiteSpace=wrap;" vertex="1" parent="1">
          <mxGeometry x="1285" y="300" width="110" height="50" as="geometry" />
        </mxCell>
        <mxCell id="iRMEyDaeMtuCpQb7a-bZ-65" value="FUUIDBillBoard" style="html=1;whiteSpace=wrap;" vertex="1" parent="1">
          <mxGeometry x="1285" y="360" width="110" height="50" as="geometry" />
        </mxCell>
        <mxCell id="iRMEyDaeMtuCpQb7a-bZ-67" value="UObject" style="html=1;whiteSpace=wrap;" vertex="1" parent="1">
          <mxGeometry x="980" y="530" width="110" height="50" as="geometry" />
        </mxCell>
        <mxCell id="iRMEyDaeMtuCpQb7a-bZ-68" style="edgeStyle=orthogonalEdgeStyle;rounded=0;orthogonalLoop=1;jettySize=auto;html=1;entryX=0.5;entryY=1;entryDx=0;entryDy=0;endArrow=block;endFill=0;" edge="1" source="iRMEyDaeMtuCpQb7a-bZ-69" target="iRMEyDaeMtuCpQb7a-bZ-67" parent="1">
          <mxGeometry relative="1" as="geometry" />
        </mxCell>
        <mxCell id="iRMEyDaeMtuCpQb7a-bZ-69" value="AActor" style="html=1;whiteSpace=wrap;" vertex="1" parent="1">
          <mxGeometry x="980" y="610" width="110" height="50" as="geometry" />
        </mxCell>
        <mxCell id="iRMEyDaeMtuCpQb7a-bZ-70" value="UClass" style="html=1;whiteSpace=wrap;" vertex="1" parent="1">
          <mxGeometry x="1100" y="610" width="110" height="50" as="geometry" />
        </mxCell>
        <mxCell id="iRMEyDaeMtuCpQb7a-bZ-71" value="UActorComponent" style="html=1;whiteSpace=wrap;" vertex="1" parent="1">
          <mxGeometry x="1220" y="610" width="110" height="50" as="geometry" />
        </mxCell>
        <mxCell id="iRMEyDaeMtuCpQb7a-bZ-72" value="UAsset" style="html=1;whiteSpace=wrap;" vertex="1" parent="1">
          <mxGeometry x="1340" y="610" width="110" height="50" as="geometry" />
        </mxCell>
        <mxCell id="iRMEyDaeMtuCpQb7a-bZ-73" value="UWorld" style="html=1;whiteSpace=wrap;" vertex="1" parent="1">
          <mxGeometry x="1460" y="610" width="110" height="50" as="geometry" />
        </mxCell>
        <mxCell id="iRMEyDaeMtuCpQb7a-bZ-74" value="UFileManager&lt;br&gt;USerializer" style="text;html=1;align=center;verticalAlign=middle;whiteSpace=wrap;rounded=0;" vertex="1" parent="1">
          <mxGeometry x="1275" y="70" width="60" height="30" as="geometry" />
        </mxCell>
        <mxCell id="iRMEyDaeMtuCpQb7a-bZ-79" value="ShaderResourceBinding" style="swimlane;fontStyle=0;childLayout=stackLayout;horizontal=1;startSize=26;fillColor=none;horizontalStack=0;resizeParent=1;resizeParentMax=0;resizeLast=0;collapsible=1;marginBottom=0;whiteSpace=wrap;html=1;" vertex="1" parent="1">
          <mxGeometry x="40" y="870" width="160" height="104" as="geometry" />
        </mxCell>
        <mxCell id="iRMEyDaeMtuCpQb7a-bZ-80" value="+ field: type" style="text;strokeColor=none;fillColor=none;align=left;verticalAlign=top;spacingLeft=4;spacingRight=4;overflow=hidden;rotatable=0;points=[[0,0.5],[1,0.5]];portConstraint=eastwest;whiteSpace=wrap;html=1;" vertex="1" parent="iRMEyDaeMtuCpQb7a-bZ-79">
          <mxGeometry y="26" width="160" height="26" as="geometry" />
        </mxCell>
        <mxCell id="iRMEyDaeMtuCpQb7a-bZ-81" value="+ field: type" style="text;strokeColor=none;fillColor=none;align=left;verticalAlign=top;spacingLeft=4;spacingRight=4;overflow=hidden;rotatable=0;points=[[0,0.5],[1,0.5]];portConstraint=eastwest;whiteSpace=wrap;html=1;" vertex="1" parent="iRMEyDaeMtuCpQb7a-bZ-79">
          <mxGeometry y="52" width="160" height="26" as="geometry" />
        </mxCell>
        <mxCell id="iRMEyDaeMtuCpQb7a-bZ-82" value="+ field: type" style="text;strokeColor=none;fillColor=none;align=left;verticalAlign=top;spacingLeft=4;spacingRight=4;overflow=hidden;rotatable=0;points=[[0,0.5],[1,0.5]];portConstraint=eastwest;whiteSpace=wrap;html=1;" vertex="1" parent="iRMEyDaeMtuCpQb7a-bZ-79">
          <mxGeometry y="78" width="160" height="26" as="geometry" />
        </mxCell>
        <mxCell id="iRMEyDaeMtuCpQb7a-bZ-83" value="APlayerInput" style="html=1;whiteSpace=wrap;" vertex="1" parent="1">
          <mxGeometry x="40" y="200" width="110" height="50" as="geometry" />
        </mxCell>
        <mxCell id="iRMEyDaeMtuCpQb7a-bZ-86" value="FViewMode" style="html=1;whiteSpace=wrap;" vertex="1" parent="1">
          <mxGeometry x="40" y="270" width="110" height="50" as="geometry" />
        </mxCell>
        <mxCell id="iRMEyDaeMtuCpQb7a-bZ-92" style="edgeStyle=orthogonalEdgeStyle;rounded=0;orthogonalLoop=1;jettySize=auto;html=1;entryX=0;entryY=0.5;entryDx=0;entryDy=0;" edge="1" parent="1" source="iRMEyDaeMtuCpQb7a-bZ-87" target="iRMEyDaeMtuCpQb7a-bZ-65">
          <mxGeometry relative="1" as="geometry" />
        </mxCell>
        <mxCell id="iRMEyDaeMtuCpQb7a-bZ-93" style="edgeStyle=orthogonalEdgeStyle;rounded=0;orthogonalLoop=1;jettySize=auto;html=1;exitX=1;exitY=0.5;exitDx=0;exitDy=0;entryX=0;entryY=0.5;entryDx=0;entryDy=0;" edge="1" parent="1" source="iRMEyDaeMtuCpQb7a-bZ-87" target="iRMEyDaeMtuCpQb7a-bZ-64">
          <mxGeometry relative="1" as="geometry" />
        </mxCell>
        <mxCell id="iRMEyDaeMtuCpQb7a-bZ-87" value="URenderer" style="html=1;whiteSpace=wrap;" vertex="1" parent="1">
          <mxGeometry x="1130" y="300" width="110" height="50" as="geometry" />
        </mxCell>
        <mxCell id="iRMEyDaeMtuCpQb7a-bZ-100" value="UWorld" style="html=1;whiteSpace=wrap;" vertex="1" parent="1">
          <mxGeometry x="1130" y="420" width="110" height="50" as="geometry" />
        </mxCell>
        <mxCell id="iRMEyDaeMtuCpQb7a-bZ-103" value="&lt;strike&gt;APlayerController&lt;/strike&gt;" style="html=1;whiteSpace=wrap;" vertex="1" parent="1">
          <mxGeometry x="980" y="200" width="110" height="50" as="geometry" />
        </mxCell>
      </root>
    </mxGraphModel>
  </diagram>
  <diagram id="2I1EB7hf-O-x0zKgV4hI" name="헤더 참조">
    <mxGraphModel dx="2505" dy="2238" grid="1" gridSize="10" guides="1" tooltips="1" connect="1" arrows="1" fold="1" page="1" pageScale="1" pageWidth="827" pageHeight="1169" math="0" shadow="0">
      <root>
        <mxCell id="0" />
        <mxCell id="1" parent="0" />
        <mxCell id="Fp7Mc_0fgObjuWTS5GIf-8" style="edgeStyle=orthogonalEdgeStyle;rounded=0;orthogonalLoop=1;jettySize=auto;html=1;entryX=0.5;entryY=1;entryDx=0;entryDy=0;" edge="1" parent="1" source="Fp7Mc_0fgObjuWTS5GIf-1" target="Fp7Mc_0fgObjuWTS5GIf-2">
          <mxGeometry relative="1" as="geometry" />
        </mxCell>
        <mxCell id="Fp7Mc_0fgObjuWTS5GIf-9" style="edgeStyle=orthogonalEdgeStyle;rounded=0;orthogonalLoop=1;jettySize=auto;html=1;" edge="1" parent="1" source="Fp7Mc_0fgObjuWTS5GIf-1" target="Fp7Mc_0fgObjuWTS5GIf-3">
          <mxGeometry relative="1" as="geometry" />
        </mxCell>
        <mxCell id="Fp7Mc_0fgObjuWTS5GIf-11" style="edgeStyle=orthogonalEdgeStyle;rounded=0;orthogonalLoop=1;jettySize=auto;html=1;entryX=0.5;entryY=1;entryDx=0;entryDy=0;" edge="1" parent="1" source="Fp7Mc_0fgObjuWTS5GIf-1" target="Fp7Mc_0fgObjuWTS5GIf-4">
          <mxGeometry relative="1" as="geometry" />
        </mxCell>
        <mxCell id="Fp7Mc_0fgObjuWTS5GIf-1" value="Resource.h" style="text;html=1;align=center;verticalAlign=middle;whiteSpace=wrap;rounded=0;" vertex="1" parent="1">
          <mxGeometry x="80" y="-380" width="90" height="30" as="geometry" />
        </mxCell>
        <mxCell id="Fp7Mc_0fgObjuWTS5GIf-2" value="Object.h" style="text;html=1;align=center;verticalAlign=middle;whiteSpace=wrap;rounded=0;" vertex="1" parent="1">
          <mxGeometry x="80" y="-480" width="90" height="30" as="geometry" />
        </mxCell>
        <mxCell id="Fp7Mc_0fgObjuWTS5GIf-10" style="edgeStyle=orthogonalEdgeStyle;rounded=0;orthogonalLoop=1;jettySize=auto;html=1;entryX=0.5;entryY=1;entryDx=0;entryDy=0;" edge="1" parent="1" source="Fp7Mc_0fgObjuWTS5GIf-3" target="Fp7Mc_0fgObjuWTS5GIf-5">
          <mxGeometry relative="1" as="geometry" />
        </mxCell>
        <mxCell id="Fp7Mc_0fgObjuWTS5GIf-3" value="ObjectFactory.h" style="text;html=1;align=center;verticalAlign=middle;whiteSpace=wrap;rounded=0;" vertex="1" parent="1">
          <mxGeometry x="190" y="-480" width="90" height="30" as="geometry" />
        </mxCell>
        <mxCell id="Fp7Mc_0fgObjuWTS5GIf-4" value="Class.h" style="text;html=1;align=center;verticalAlign=middle;whiteSpace=wrap;rounded=0;" vertex="1" parent="1">
          <mxGeometry x="310" y="-480" width="90" height="30" as="geometry" />
        </mxCell>
        <mxCell id="Fp7Mc_0fgObjuWTS5GIf-14" style="edgeStyle=orthogonalEdgeStyle;rounded=0;orthogonalLoop=1;jettySize=auto;html=1;entryX=0.5;entryY=1;entryDx=0;entryDy=0;" edge="1" parent="1" source="Fp7Mc_0fgObjuWTS5GIf-5" target="Fp7Mc_0fgObjuWTS5GIf-12">
          <mxGeometry relative="1" as="geometry" />
        </mxCell>
        <mxCell id="Fp7Mc_0fgObjuWTS5GIf-15" style="edgeStyle=orthogonalEdgeStyle;rounded=0;orthogonalLoop=1;jettySize=auto;html=1;entryX=0.5;entryY=1;entryDx=0;entryDy=0;" edge="1" parent="1" source="Fp7Mc_0fgObjuWTS5GIf-5" target="Fp7Mc_0fgObjuWTS5GIf-13">
          <mxGeometry relative="1" as="geometry" />
        </mxCell>
        <mxCell id="Fp7Mc_0fgObjuWTS5GIf-17" style="edgeStyle=orthogonalEdgeStyle;rounded=0;orthogonalLoop=1;jettySize=auto;html=1;entryX=0.5;entryY=1;entryDx=0;entryDy=0;" edge="1" parent="1" source="Fp7Mc_0fgObjuWTS5GIf-5" target="Fp7Mc_0fgObjuWTS5GIf-16">
          <mxGeometry relative="1" as="geometry" />
        </mxCell>
        <mxCell id="Fp7Mc_0fgObjuWTS5GIf-5" value="Engine.h" style="text;html=1;align=center;verticalAlign=middle;whiteSpace=wrap;rounded=0;" vertex="1" parent="1">
          <mxGeometry x="190" y="-570" width="90" height="30" as="geometry" />
        </mxCell>
        <mxCell id="Fp7Mc_0fgObjuWTS5GIf-12" value="UI.h" style="text;html=1;align=center;verticalAlign=middle;whiteSpace=wrap;rounded=0;" vertex="1" parent="1">
          <mxGeometry x="190" y="-660" width="90" height="30" as="geometry" />
        </mxCell>
        <mxCell id="Fp7Mc_0fgObjuWTS5GIf-13" value="URenderer.h" style="text;html=1;align=center;verticalAlign=middle;whiteSpace=wrap;rounded=0;" vertex="1" parent="1">
          <mxGeometry x="310" y="-660" width="90" height="30" as="geometry" />
        </mxCell>
        <mxCell id="Fp7Mc_0fgObjuWTS5GIf-19" style="edgeStyle=orthogonalEdgeStyle;rounded=0;orthogonalLoop=1;jettySize=auto;html=1;entryX=0;entryY=0.5;entryDx=0;entryDy=0;" edge="1" parent="1" source="Fp7Mc_0fgObjuWTS5GIf-16" target="Fp7Mc_0fgObjuWTS5GIf-2">
          <mxGeometry relative="1" as="geometry">
            <Array as="points">
              <mxPoint x="60" y="-645" />
              <mxPoint x="60" y="-465" />
            </Array>
          </mxGeometry>
        </mxCell>
        <mxCell id="Fp7Mc_0fgObjuWTS5GIf-16" value="Casts.h" style="text;html=1;align=center;verticalAlign=middle;whiteSpace=wrap;rounded=0;" vertex="1" parent="1">
          <mxGeometry x="80" y="-660" width="90" height="30" as="geometry" />
        </mxCell>
        <mxCell id="Fp7Mc_0fgObjuWTS5GIf-20" value="FLineBatchManager.h" style="text;html=1;align=center;verticalAlign=middle;whiteSpace=wrap;rounded=0;" vertex="1" parent="1">
          <mxGeometry x="300" y="-750" width="130" height="30" as="geometry" />
        </mxCell>
        <mxCell id="TUWc8QdEWtEZ8tyEorqD-7" style="edgeStyle=orthogonalEdgeStyle;rounded=0;orthogonalLoop=1;jettySize=auto;html=1;" edge="1" parent="1" source="Fp7Mc_0fgObjuWTS5GIf-21" target="TUWc8QdEWtEZ8tyEorqD-6">
          <mxGeometry relative="1" as="geometry" />
        </mxCell>
        <mxCell id="Fp7Mc_0fgObjuWTS5GIf-21" value="FUUIDBillBoard.h" style="text;html=1;align=center;verticalAlign=middle;whiteSpace=wrap;rounded=0;" vertex="1" parent="1">
          <mxGeometry x="440" y="-750" width="130" height="30" as="geometry" />
        </mxCell>
        <mxCell id="Fp7Mc_0fgObjuWTS5GIf-24" value="ViewMode.h" style="text;html=1;align=center;verticalAlign=middle;whiteSpace=wrap;rounded=0;" vertex="1" parent="1">
          <mxGeometry x="560" y="-750" width="130" height="30" as="geometry" />
        </mxCell>
        <mxCell id="TUWc8QdEWtEZ8tyEorqD-2" style="edgeStyle=orthogonalEdgeStyle;rounded=0;orthogonalLoop=1;jettySize=auto;html=1;entryX=0.5;entryY=1;entryDx=0;entryDy=0;" edge="1" parent="1" source="Fp7Mc_0fgObjuWTS5GIf-26" target="Fp7Mc_0fgObjuWTS5GIf-1">
          <mxGeometry relative="1" as="geometry">
            <Array as="points">
              <mxPoint x="-20" y="-310" />
              <mxPoint x="125" y="-310" />
            </Array>
          </mxGeometry>
        </mxCell>
        <mxCell id="Fp7Mc_0fgObjuWTS5GIf-26" value="Rasterizer.h" style="text;html=1;align=center;verticalAlign=middle;whiteSpace=wrap;rounded=0;" vertex="1" parent="1">
          <mxGeometry x="-85" y="-280" width="130" height="30" as="geometry" />
        </mxCell>
        <mxCell id="TUWc8QdEWtEZ8tyEorqD-5" style="edgeStyle=orthogonalEdgeStyle;rounded=0;orthogonalLoop=1;jettySize=auto;html=1;entryX=0.5;entryY=1;entryDx=0;entryDy=0;" edge="1" parent="1" source="Fp7Mc_0fgObjuWTS5GIf-27" target="Fp7Mc_0fgObjuWTS5GIf-1">
          <mxGeometry relative="1" as="geometry" />
        </mxCell>
        <mxCell id="Fp7Mc_0fgObjuWTS5GIf-27" value="VertexShader.h" style="text;html=1;align=center;verticalAlign=middle;whiteSpace=wrap;rounded=0;" vertex="1" parent="1">
          <mxGeometry x="60" y="-280" width="130" height="30" as="geometry" />
        </mxCell>
        <mxCell id="TUWc8QdEWtEZ8tyEorqD-4" style="edgeStyle=orthogonalEdgeStyle;rounded=0;orthogonalLoop=1;jettySize=auto;html=1;" edge="1" parent="1" source="Fp7Mc_0fgObjuWTS5GIf-28" target="Fp7Mc_0fgObjuWTS5GIf-1">
          <mxGeometry relative="1" as="geometry">
            <Array as="points">
              <mxPoint x="270" y="-310" />
              <mxPoint x="125" y="-310" />
            </Array>
          </mxGeometry>
        </mxCell>
        <mxCell id="Fp7Mc_0fgObjuWTS5GIf-28" value="PixelShader.h" style="text;html=1;align=center;verticalAlign=middle;whiteSpace=wrap;rounded=0;" vertex="1" parent="1">
          <mxGeometry x="205" y="-280" width="130" height="30" as="geometry" />
        </mxCell>
        <mxCell id="TUWc8QdEWtEZ8tyEorqD-6" value="Actor.h" style="text;html=1;align=center;verticalAlign=middle;whiteSpace=wrap;rounded=0;" vertex="1" parent="1">
          <mxGeometry x="440" y="-810" width="130" height="30" as="geometry" />
        </mxCell>
      </root>
    </mxGraphModel>
  </diagram>
</mxfile>
